HIERARCHY
ROOT Hips
{
	OFFSET -3.958830 18.904000 13.208200
	CHANNELS 6 Xposition Yposition Zposition Zrotation Yrotation Xrotation 
	JOINT LHipJoint
	{
		OFFSET 0.000000 0.000000 0.000000
		CHANNELS 3 Zrotation Yrotation Xrotation
		JOINT LeftUpLeg
		{
			OFFSET 1.800000 -1.400000 0.085000
			CHANNELS 3 Zrotation Yrotation Xrotation
			JOINT LeftLeg
			{
				OFFSET 2.215000 -6.000000 0.000000
				CHANNELS 3 Zrotation Yrotation Xrotation
				JOINT LeftFoot
				{
					OFFSET 2.500000 -6.900000 0.000000
					CHANNELS 3 Zrotation Yrotation Xrotation
					JOINT LeftToeBase
					{
						OFFSET 0.200000 -0.500000 1.950000
						CHANNELS 3 Zrotation Yrotation Xrotation
						End Site
						{
							OFFSET 0.000000 0.000000 0.000000
						}
					}
				}
			}
		}
	}
	JOINT RHipJoint
	{
		OFFSET 0.000000 0.000000 0.000000
		CHANNELS 3 Zrotation Yrotation Xrotation
		JOINT RightUpLeg
		{
			OFFSET -1.800000 -1.400000 0.085000
			CHANNELS 3 Zrotation Yrotation Xrotation
			JOINT RightLeg
			{
				OFFSET -2.215000 -6.000000 0.000000
				CHANNELS 3 Zrotation Yrotation Xrotation
				JOINT RightFoot
				{
					OFFSET -2.500000 -6.900000 0.000000
					CHANNELS 3 Zrotation Yrotation Xrotation
					JOINT RightToeBase
					{
						OFFSET -0.200000 -0.500000 1.950000
						CHANNELS 3 Zrotation Yrotation Xrotation
						End Site
						{
							OFFSET 0.000000 0.000000 0.000000
						}
					}
				}
			}
		}
	}
	JOINT LowerBack
	{
		OFFSET 0.000000 0.000000 0.000000
		CHANNELS 3 Zrotation Yrotation Xrotation
		JOINT Spine
		{
			OFFSET -0.087000 1.940000 -0.288900
			CHANNELS 3 Zrotation Yrotation Xrotation
			JOINT Spine1
			{
				OFFSET 0.000000 1.950000 0.060000
				CHANNELS 3 Zrotation Yrotation Xrotation
				JOINT Neck
				{
					OFFSET 0.000000 0.000000 0.000000
					CHANNELS 3 Zrotation Yrotation Xrotation
					JOINT Neck1
					{
						OFFSET 0.000000 1.600000 0.340000
						CHANNELS 3 Zrotation Yrotation Xrotation
						JOINT Head
						{
							OFFSET 0.000000 1.667000 -0.240000
							CHANNELS 3 Zrotation Yrotation Xrotation
							End Site
							{
								OFFSET 0.000000 0.000000 0.000000
							}
						}
					}
				}
				JOINT LeftShoulder
				{
					OFFSET 0.000000 0.000000 0.000000
					CHANNELS 3 Zrotation Yrotation Xrotation
					JOINT LeftArm
					{
						OFFSET 2.700000 1.550000 -0.730000
						CHANNELS 3 Zrotation Yrotation Xrotation
						JOINT LeftForeArm
						{
							OFFSET 5.450000 0.000000 0.000000
							CHANNELS 3 Zrotation Yrotation Xrotation
							JOINT LeftHand
							{
								OFFSET 3.450000 0.000000 0.000000
								CHANNELS 3 Zrotation Yrotation Xrotation
								JOINT LeftHandIndex1
								{
									OFFSET 0.750000 0.000000 0.000000
									CHANNELS 3 Zrotation Yrotation Xrotation
									End Site
									{
										OFFSET 0.000000 0.000000 0.000000
									}
								}
							}
						}
					}
				}
				JOINT RightShoulder
				{
					OFFSET 0.000000 0.000000 0.000000
					CHANNELS 3 Zrotation Yrotation Xrotation
					JOINT RightArm
					{
						OFFSET -2.700000 1.550000 -0.730000
						CHANNELS 3 Zrotation Yrotation Xrotation
						JOINT RightForeArm
						{
							OFFSET -5.450000 0.000000 0.000000
							CHANNELS 3 Zrotation Yrotation Xrotation
							JOINT RightHand
							{
								OFFSET -3.450000 0.000000 0.000000
								CHANNELS 3 Zrotation Yrotation Xrotation
								JOINT RightHandIndex1
								{
									OFFSET -0.750000 0.000000 0.000000
									CHANNELS 3 Zrotation Yrotation Xrotation
									End Site
									{
										OFFSET 0.000000 0.000000 0.000000
									}
								}
							}
						}
					}
				}
			}
		}
	}
}
MOTION
Frames: 9
Frame Time: 0.016667
-0.802540 17.614540 -4.352160 -19.149980 51.368678 1.070372 -15.502296 11.954967 3.943979 9.922687 -6.194676 -38.246286 -2.362330 3.991976 14.044858 -0.396870 2.847546 3.574283 0.096060 -0.468420 0.234170 18.273155 -7.795010 5.415023 -16.348307 7.962196 -56.109736 14.389451 -6.316663 18.661515 -0.128170 -2.743644 3.423256 -0.534590 0.177990 0.263670 -4.045909 -3.677614 -9.587580 17.568665 -7.859867 20.572807 1.178279 -2.626150 -4.026407 0.967880 -5.480434 -18.005120 -20.194225 -1.078553 50.973516 6.439190 -14.124960 -4.402190 3.312996 -28.413610 3.015953 9.584032 -30.743154 0.068240 9.144285 -1.679188 -0.684288 -3.616875 2.495889 0.825300 -0.171900 0.178020 0.152290 -4.442672 32.763250 9.565172 -5.226788 25.324164 -4.136102 -20.342730 9.963425 -1.101620 2.706370 -0.908137 -0.107580 0.076990 -0.005690 -0.058800 
-0.829340 17.634320 -4.367940 -19.480586 51.943901 -0.699933 -15.509069 12.025329 3.809348 9.953878 -5.987898 -37.060697 -2.259186 4.095245 14.974018 -0.444955 2.938518 3.522871 0.183020 -0.377390 0.294560 18.247797 -7.879607 5.459804 -16.752067 8.083016 -55.615822 16.617656 -7.397526 21.103185 -0.237528 -3.316228 3.178211 -0.455920 0.139490 0.284660 -4.051012 -3.556146 -9.557170 17.062996 -7.844756 21.916397 1.299280 -2.815834 -2.531639 0.744621 -4.425950 -17.778056 -17.668241 -1.501057 52.119754 6.551590 -13.356740 -6.228860 4.885610 -29.962203 2.514384 9.849846 -31.186998 -0.216078 10.398765 -0.371133 -0.847944 -3.642552 2.539392 0.840190 -0.182480 0.198860 0.161050 -5.853565 33.484432 8.651658 -5.176484 26.823242 -4.913092 -23.536861 10.322032 -1.888423 2.678861 -1.039242 -0.101230 0.060620 -0.039330 -0.081110 
-0.921810 17.683130 -4.391630 -20.423953 52.941914 -5.242949 -15.487167 11.982934 3.332768 10.426972 -5.134159 -33.905471 -2.497440 4.796136 18.384587 -0.573879 3.559177 3.345372 0.249550 -0.243160 0.202780 18.280379 -8.169076 5.527474 -15.944718 9.474143 -55.167164 18.880153 -9.585457 27.825713 -0.364353 -4.658941 2.714806 -0.237400 0.355680 0.270590 -4.416696 -2.668601 -9.344988 17.642986 -7.485844 24.321577 0.035015 -2.956841 3.106014 -0.324798 -3.493453 -15.390175 -13.245558 -2.984430 48.540904 8.230560 -13.716220 -7.219810 9.091728 -33.445801 0.672699 10.580951 -31.815096 -2.024258 16.403025 0.013131 -1.600611 -3.892887 2.661066 0.701590 -0.021490 0.033110 0.235430 -8.511910 35.891040 4.744349 -7.416525 32.579435 -6.825260 -27.395863 1.644330 -2.396554 2.767519 -1.300315 -0.188930 0.198770 0.004520 -0.033370 
-1.005530 17.708870 -4.403780 -21.206281 54.120459 -8.741251 -15.521506 11.969716 2.897472 10.534722 -4.391266 -31.510651 -1.879825 5.374536 22.075924 -0.677181 4.152760 3.127155 0.313690 -0.145370 0.241220 18.291152 -8.186344 5.726124 -15.051732 11.333257 -56.136349 19.986803 -13.068320 37.620068 -0.700551 -6.551563 2.060383 -0.092470 0.429320 0.277310 -4.627743 -2.257282 -9.301361 18.502495 -7.559959 26.092587 -1.851598 -2.789232 6.210692 0.076155 -1.912660 -13.369861 -9.477530 -4.529385 47.413855 6.071940 -12.868790 -9.032290 10.925064 -37.384987 -2.254052 9.312252 -36.136000 -4.196942 23.629746 0.801741 -2.653308 -4.056160 2.753323 0.647740 0.066420 -0.025110 0.226460 -11.322897 38.655898 2.424897 -7.947616 34.429445 -8.105504 -29.681131 2.560684 -3.363173 2.679577 -1.390720 -0.237530 0.291280 0.038150 -0.048340 
-1.065880 17.718230 -4.387210 -21.548140 55.441757 -12.119136 -15.600432 12.142350 2.487548 10.374319 -3.607619 -28.559676 -0.929303 5.858172 25.584962 -0.777147 4.746832 2.916958 0.445820 0.005530 0.285420 18.227946 -8.157224 5.864174 -14.173870 13.281083 -55.707337 20.547059 -16.701211 47.265524 -1.168793 -8.601802 1.388502 0.093130 0.471880 0.273310 -4.608132 -2.246633 -9.279183 17.813335 -6.890693 28.016129 -1.125559 -2.588146 9.333687 0.192825 -1.458801 -11.563395 -8.086114 -5.343130 46.072733 5.901360 -13.035390 -11.178170 12.315756 -41.147188 -4.580550 4.648893 -39.036931 -6.084273 35.147544 -4.022316 -5.298202 -4.039296 2.909865 0.642480 0.101770 -0.062370 0.272960 -12.705964 42.684539 0.427818 -7.003564 35.820750 -10.006260 -33.551820 5.585188 -5.082711 2.549733 -1.533767 -0.292850 0.375170 0.023720 -0.065620 
-1.090600 17.686120 -4.339680 -22.661053 57.513317 -13.954526 -15.664424 12.006630 2.126675 10.389018 -2.922661 -27.159876 0.129266 6.075342 27.549720 -0.812042 5.091572 2.810554 0.471340 0.059870 0.238580 18.230172 -8.030945 6.108716 -15.068260 14.970410 -56.799420 23.654420 -21.915525 55.071303 -1.725412 -10.829079 0.774097 0.169930 0.565830 0.275900 -4.890320 -1.884142 -9.396631 19.485750 -6.500807 26.956612 -2.203262 -2.000686 10.973334 0.937003 -1.074925 -10.072498 -7.190424 -6.643131 45.527517 6.153680 -14.493510 -12.091590 11.096009 -44.237130 -4.300841 -3.117410 -44.163017 -5.723448 48.074365 -11.147911 -10.336866 -4.020146 2.835596 0.607850 0.161070 -0.111340 0.307950 -12.914292 45.750555 -0.693301 -4.331184 37.710139 -11.295030 -40.985270 13.610684 -8.749755 2.381520 -1.558423 -0.321330 0.460580 0.056390 -0.037810 
-1.087030 17.600410 -4.285530 -25.366044 60.760249 -16.495118 -15.766564 11.715191 1.716077 10.671817 -2.331138 -25.803076 0.837470 5.891686 26.910139 -0.872730 4.983184 2.856450 0.551430 0.163420 0.249940 18.222264 -7.919466 6.306073 -16.443069 15.970803 -58.853459 26.838522 -28.560988 62.703184 -2.374981 -13.155259 0.184369 0.259390 0.582770 0.251320 -5.627076 -1.100461 -9.496096 23.393749 -6.818955 23.957262 -5.087091 -2.182762 12.305225 1.413845 -0.184939 -8.942774 -5.948701 -8.315063 46.210615 8.047610 -16.496230 -13.925620 8.086033 -44.583654 -2.441322 -14.101710 -50.871767 -0.681733 57.883096 -18.669083 -17.243419 -3.886314 2.634679 0.592260 0.151120 -0.124590 0.342480 -10.960687 44.114125 0.507929 4.897459 40.124112 -8.875772 -50.527696 23.950000 -15.542858 2.161447 -1.491092 -0.323760 0.517520 0.034250 -0.018520 
-1.077250 17.489110 -4.230300 -29.826953 63.738872 -20.193179 -15.939200 11.442762 1.423974 11.889442 -1.947786 -24.637146 0.404374 5.853498 24.962560 -1.000341 4.931446 2.897266 0.608330 0.252910 0.161470 18.130004 -7.783460 6.424660 -16.308002 16.950978 -61.518223 27.025472 -34.261011 70.726946 -2.903101 -15.324150 -0.325167 0.397670 0.727010 0.277870 -6.368095 -0.251238 -9.648822 26.418065 -6.175885 20.171268 -4.678679 -2.553546 14.567163 1.228670 0.718621 -8.310017 -3.507238 -9.319616 45.091896 8.449240 -17.681640 -12.744410 7.525365 -42.796931 -0.660262 -26.241925 -57.090063 8.003484 63.926637 -20.454200 -22.756669 -3.786173 2.506137 0.490040 0.258030 -0.234960 0.408910 -9.790867 41.192045 1.111971 15.128231 44.647630 -4.550442 -59.364926 30.867015 -23.591360 1.878332 -1.427865 -0.349630 0.575330 0.070640 0.033380 
-1.084150 17.345080 -4.155160 -34.296332 67.106061 -23.603050 -16.130358 11.154108 1.340017 12.901478 -1.614435 -24.892004 -0.871376 6.138681 23.003103 -1.015372 4.880050 2.960317 0.595960 0.261970 0.076110 18.000030 -7.567745 6.591715 -17.931375 18.106157 -63.794702 28.982362 -40.730355 76.780041 -3.402051 -17.235920 -0.657388 0.437360 0.845900 0.263600 -7.608602 0.885243 -10.160161 29.172033 -3.955366 18.856419 -3.095860 -0.610647 15.971999 1.568444 1.411465 -12.596136 -0.360879 -11.206333 45.002315 8.067150 -19.034830 -10.542960 7.147720 -35.242107 7.973216 -47.324594 -73.730539 22.427912 70.515955 -23.885268 -31.148850 -3.665877 2.086566 0.397240 0.340750 -0.326740 0.468360 -9.850394 33.341676 1.430632 23.811607 48.335058 -0.848738 -65.916146 36.701420 -30.891160 1.760252 -1.315622 -0.373220 0.627220 0.079760 0.082370 
